HIERARCHY
ROOT SpineBase
{
  OFFSET 0.000000 0.000000 0.000000
  CHANNELS 6 Xposition Yposition Zposition Zrotation Xrotation Yrotation
  JOINT SpineMid
  {
    OFFSET 0.000000 31.633666 0.000000
    CHANNELS 3 Zrotation Xrotation Yrotation
    JOINT SpineShoulder
    {
      OFFSET 0.034570 23.482667 -0.745249
      CHANNELS 3 Zrotation Xrotation Yrotation
      JOINT Neck
      {
        OFFSET 0.036698 7.756326 -0.569136
        CHANNELS 3 Zrotation Xrotation Yrotation
        JOINT Head
        {
          OFFSET -5.361401 14.347029 -0.604441
          CHANNELS 3 Zrotation Xrotation Yrotation
          End Site
          {
            OFFSET 0 0 0
          }
        }
      }
      JOINT ShoulderLeft
      {
        OFFSET -17.279889 -6.143953 7.060115
        CHANNELS 3 Zrotation Xrotation Yrotation
        JOINT ElbowLeft
        {
          OFFSET -1.812882 -27.552561 0.784429
          CHANNELS 3 Zrotation Xrotation Yrotation
          JOINT WristLeft
          {
            OFFSET 1.024250 -21.867928 -9.325757
            CHANNELS 3 Zrotation Xrotation Yrotation
            JOINT HandLeft
            {
              OFFSET 1.621211 -5.088288 -2.143664
              CHANNELS 3 Zrotation Xrotation Yrotation
              JOINT HandTipLeft
              {
                OFFSET 0.960344 -6.769507 -5.562360
                CHANNELS 3 Zrotation Xrotation Yrotation
                End Site
                {
                  OFFSET 0 0 0
                }
              }
              JOINT ThumbLeft
              {
                OFFSET -2.704832 -0.141681 -3.125640
                CHANNELS 3 Zrotation Xrotation Yrotation
                End Site
                {
                  OFFSET 0 0 0
                }
              }
            }
          }
        }
      }
      JOINT ShoulderRight
      {
        OFFSET 13.769663 -3.391471 -9.340688
        CHANNELS 3 Zrotation Xrotation Yrotation
        JOINT ElbowRight
        {
          OFFSET 4.701683 -25.737637 -4.192674
          CHANNELS 3 Zrotation Xrotation Yrotation
          JOINT WristRight
          {
            OFFSET -4.450434 -22.866857 -5.666854
            CHANNELS 3 Zrotation Xrotation Yrotation
            JOINT HandRight
            {
              OFFSET -2.637492 -6.134595 -0.557057
              CHANNELS 3 Zrotation Xrotation Yrotation
              JOINT HandTipRight
              {
                OFFSET -1.412789 -7.075671 -1.739940
                CHANNELS 3 Zrotation Xrotation Yrotation
                End Site
                {
                  OFFSET 0 0 0
                }
              }
              JOINT ThumbRight
              {
                OFFSET 1.415962 -2.584037 -2.761824
                CHANNELS 3 Zrotation Xrotation Yrotation
                End Site
                {
                  OFFSET 0 0 0
                }
              }
            }
          }
        }
      }
    }
  }
  JOINT HipLeft
  {
    OFFSET -6.775606 0.522181 -0.501071
    CHANNELS 3 Zrotation Xrotation Yrotation
    JOINT KneeLeft
    {
      OFFSET 1.460084 -32.769504 -17.953688
      CHANNELS 3 Zrotation Xrotation Yrotation
      JOINT AnkleLeft
      {
        OFFSET 7.166299 -36.210562 24.056910
        CHANNELS 3 Zrotation Xrotation Yrotation
        JOINT FootLeft
        {
          OFFSET -3.507490 -2.012920 -11.207574
          CHANNELS 3 Zrotation Xrotation Yrotation
          End Site
          {
            OFFSET 0 0 0
          }
        }
      }
    }
  }
  JOINT HipRight
  {
    OFFSET 7.527729 1.130628 -6.704959
    CHANNELS 3 Zrotation Xrotation Yrotation
    JOINT KneeRight
    {
      OFFSET 2.304926 -35.377791 -11.523496
      CHANNELS 3 Zrotation Xrotation Yrotation
      JOINT AnkleRight
      {
        OFFSET 9.132133 -39.383954 21.294871
        CHANNELS 3 Zrotation Xrotation Yrotation
        JOINT FootRight
        {
          OFFSET -2.024710 -6.048786 -4.504736
          CHANNELS 3 Zrotation Xrotation Yrotation
          End Site
          {
            OFFSET 0 0 0
          }
        }
      }
    }
  }
}
MOTION
Frames: 11
Frame Time: 0.033333
-34.168042 79.680047 337.767398 4.118382 -5.215401 15.717076 -0.456340 -0.540563 -15.365526 -0.208941 -0.235729 0.180997 6.719703 -8.442595 -4.727073 0.000000 0.000000 0.000000 -2.474668 -27.161184 2.377904 21.407728 35.965206 -21.261384 -30.272552 13.904666 18.302928 25.312682 -29.535145 -16.017856 0.000000 0.000000 0.000000 0.000000 0.000000 0.000000 29.701634 -10.186610 -7.258464 -166.722218 59.138448 105.287525 -9.813282 21.800999 -42.419094 -19.011964 -51.858638 -15.392952 0.000000 0.000000 0.000000 0.000000 0.000000 0.000000 -13.563428 -29.603829 -19.631909 -4.546335 56.032478 8.119302 16.976173 -57.351099 7.130925 0.000000 0.000000 0.000000 -1.520030 -11.632611 -18.465620 -16.602578 31.075590 7.645943 7.967697 -2.085904 -3.007312 0.000000 0.000000 0.000000
-34.139620 79.662266 337.727489 4.016079 -5.358760 15.516348 -0.408683 -0.456961 -15.170917 -0.194004 -0.207872 0.177082 6.542063 -8.441720 -4.752860 0.000000 0.000000 0.000000 -2.385779 -27.100286 2.381125 21.370151 35.931497 -21.233850 -29.367222 13.640935 17.738566 25.527697 -29.990180 -16.273293 0.000000 0.000000 0.000000 0.000000 0.000000 0.000000 27.967549 -6.822352 -7.319136 -166.384933 57.997661 104.382005 -4.756057 22.642376 -39.966017 -25.171544 -50.194094 -20.876896 0.000000 0.000000 0.000000 0.000000 0.000000 0.000000 -13.389504 -29.618469 -19.387440 -4.474290 56.117343 8.059705 18.220750 -58.556798 8.476307 0.000000 0.000000 0.000000 -1.432858 -11.699553 -18.271601 -16.585376 31.302184 7.711800 4.988673 5.836258 -3.609554 0.000000 0.000000 0.000000
-34.105759 79.677925 337.656616 3.956665 -5.450157 15.332267 -0.356267 -0.391257 -14.991171 -0.178133 -0.189720 0.175670 6.121611 -8.534761 -4.809696 0.000000 0.000000 0.000000 -2.370172 -27.101447 2.381831 21.365146 35.928269 -21.230962 -28.402868 12.894652 16.988888 27.036081 -27.876934 -16.688056 0.000000 0.000000 0.000000 0.000000 0.000000 0.000000 26.261462 -3.639695 -7.263829 -166.631233 56.620566 103.882786 0.499867 23.698705 -36.946825 -25.824392 -47.832643 -19.805584 0.000000 0.000000 0.000000 0.000000 0.000000 0.000000 -13.233106 -29.725324 -19.209770 -4.623959 56.259411 8.151942 18.579652 -58.998531 8.381398 0.000000 0.000000 0.000000 -1.392716 -11.768502 -18.088721 -16.545513 31.420907 7.734436 3.006035 10.642291 -3.640566 0.000000 0.000000 0.000000
-34.069469 79.701219 337.567024 3.912711 -5.491866 15.171405 -0.318415 -0.337615 -14.834685 -0.174034 -0.186254 0.174575 5.698215 -8.656963 -4.868293 0.000000 0.000000 0.000000 -2.349440 -27.124924 2.382528 21.362700 35.927526 -21.230188 -28.029727 12.665638 16.721944 27.403694 -26.727273 -16.778437 0.000000 0.000000 0.000000 0.000000 0.000000 0.000000 23.191091 0.625655 -6.865904 -169.244396 55.278642 106.907759 4.861165 22.738844 -34.615806 -28.725926 -47.957984 -23.637283 0.000000 0.000000 0.000000 0.000000 0.000000 0.000000 -13.127235 -29.887386 -19.072754 -4.791939 56.440490 8.262887 18.389507 -58.787149 7.996473 0.000000 0.000000 0.000000 -1.385307 -11.851160 -17.924440 -16.531614 31.549425 7.754263 1.818582 14.814299 -3.866036 0.000000 0.000000 0.000000
-34.039024 79.729712 337.471770 3.882062 -5.487463 15.009636 -0.296706 -0.296126 -14.677240 -0.182391 -0.189051 0.173322 5.325330 -8.853371 -4.936343 0.000000 0.000000 0.000000 -2.317616 -27.173006 2.383393 21.360586 35.927369 -21.229847 -27.888767 13.023928 16.768191 27.558279 -28.266707 -16.912180 0.000000 0.000000 0.000000 0.000000 0.000000 0.000000 22.186942 1.577129 -6.653917 -169.320275 55.262677 107.632771 5.612152 24.689015 -34.731832 -35.005071 -49.625497 -33.222813 0.000000 0.000000 0.000000 0.000000 0.000000 0.000000 -13.024773 -30.087827 -18.952339 -5.028802 56.606836 8.416709 17.504451 -57.926625 6.649999 0.000000 0.000000 0.000000 -1.377392 -11.887109 -17.751607 -16.477971 31.559848 7.728977 2.970142 11.794823 -3.865802 0.000000 0.000000 0.000000
-34.002838 79.755068 337.357373 3.867485 -5.485027 14.771968 -0.277066 -0.262403 -14.442233 -0.186091 -0.193851 0.172972 4.975455 -9.043884 -5.006209 0.000000 0.000000 0.000000 -2.306612 -27.209920 2.383887 21.359103 35.927957 -21.230056 -27.656186 13.553455 16.822375 28.672811 -28.606135 -17.159865 0.000000 0.000000 0.000000 0.000000 0.000000 0.000000 20.258007 2.100439 -6.218842 -170.864662 55.787294 111.765204 11.367801 32.555624 -32.898359 -56.825066 -47.510395 -62.472019 0.000000 0.000000 0.000000 0.000000 0.000000 0.000000 -12.893340 -30.315115 -18.747680 -5.266018 56.761635 8.569265 16.744723 -57.442080 4.718891 0.000000 0.000000 0.000000 -1.316124 -11.862570 -17.504297 -16.455361 31.441767 7.673393 1.634258 16.929068 -4.154483 0.000000 0.000000 0.000000
-33.959862 79.760394 337.239258 3.874319 -5.469378 14.463021 -0.268100 -0.247164 -14.133933 -0.178884 -0.206277 0.173859 4.710566 -9.261562 -5.082802 0.000000 0.000000 0.000000 -2.322570 -27.231764 2.383774 21.357996 35.928577 -21.230339 -27.413686 14.040880 16.855609 29.374916 -29.569805 -17.330038 0.000000 0.000000 0.000000 0.000000 0.000000 0.000000 20.902238 1.183513 -6.343093 -174.667578 60.877033 119.233090 -28.997977 31.037394 -69.500434 17.951210 -35.893764 13.897899 0.000000 0.000000 0.000000 0.000000 0.000000 0.000000 -12.734560 -30.555186 -18.459988 -5.494828 56.888685 8.716576 16.304355 -57.633007 2.411384 0.000000 0.000000 0.000000 -1.215173 -11.809694 -17.189403 -16.531780 31.277330 7.618820 3.474144 11.922341 -4.035331 0.000000 0.000000 0.000000
-33.904754 79.741666 337.115289 3.935332 -5.474988 14.070383 -0.244771 -0.259906 -13.736236 -0.152092 -0.222373 0.178805 4.151817 -9.283763 -5.141465 0.000000 0.000000 0.000000 -2.433787 -27.204539 2.381616 21.357663 35.929498 -21.230776 -27.075213 14.922100 16.963116 29.601629 -30.740603 -17.287125 0.000000 0.000000 0.000000 0.000000 0.000000 0.000000 22.047713 -0.444479 -6.581335 -174.179165 60.350631 117.674844 -74.812486 32.612629 -98.331423 26.722664 19.250017 44.053771 0.000000 0.000000 0.000000 0.000000 0.000000 0.000000 -12.577647 -30.774501 -18.053650 -5.648221 56.978961 8.811615 18.539916 -60.384492 3.959196 0.000000 0.000000 0.000000 -1.145625 -11.726190 -16.782975 -16.618464 31.119917 7.564988 5.901859 5.285011 -3.667980 0.000000 0.000000 0.000000
-33.838181 79.686397 336.983866 4.070968 -5.499779 13.664984 -0.207888 -0.295357 -13.318483 -0.111426 -0.237001 0.188261 3.769622 -9.376661 -5.214503 0.000000 0.000000 0.000000 -2.652996 -27.139251 2.377222 21.358068 35.930412 -21.231199 -26.801690 15.337239 16.951887 29.678792 -30.922803 -17.245166 0.000000 0.000000 0.000000 0.000000 0.000000 0.000000 22.570751 -0.041177 -6.776400 -171.853278 57.928934 112.383991 -100.204051 27.212602 -116.713801 -0.477966 47.350703 71.695081 0.000000 0.000000 0.000000 0.000000 0.000000 0.000000 -12.489296 -30.975624 -17.611004 -5.756373 57.074748 8.876105 14.764158 -55.238104 1.018050 0.000000 0.000000 0.000000 -1.178974 -11.658235 -16.353070 -16.648408 31.007768 7.515651 6.778552 3.838462 -3.682916 0.000000 0.000000 0.000000
-33.769830 79.588659 336.862869 4.256124 -5.543032 13.230671 -0.169368 -0.336176 -12.866682 -0.068575 -0.245856 0.199898 3.755739 -9.594304 -5.296677 0.000000 0.000000 0.000000 -2.926988 -27.056005 2.372014 21.360010 35.932459 -21.232482 -26.567108 16.322165 17.138942 28.739387 -33.662439 -16.977173 0.000000 0.000000 0.000000 0.000000 0.000000 0.000000 23.841455 1.240445 -7.197661 -166.598903 53.689621 101.097321 -105.652952 13.068884 -126.524804 -22.049740 44.983809 80.734903 0.000000 0.000000 0.000000 0.000000 0.000000 0.000000 -12.442501 -31.168974 -17.116367 -5.793623 57.185283 8.899872 12.975479 -51.959992 0.326977 0.000000 0.000000 0.000000 -1.288636 -11.554379 -15.876652 -16.636014 30.860677 7.426910 6.984016 5.086037 -4.023081 0.000000 0.000000 0.000000
-33.697470 79.456921 336.763751 4.480036 -5.606701 12.824113 -0.120308 -0.378008 -12.438478 -0.023704 -0.245425 0.213368 4.085590 -9.906864 -5.375873 0.000000 0.000000 0.000000 -3.252969 -26.962081 2.366156 21.363473 35.935387 -21.234394 -26.232365 16.649169 17.062713 28.318731 -34.492131 -16.890106 0.000000 0.000000 0.000000 0.000000 0.000000 0.000000 26.251894 3.450661 -7.999812 -158.373455 45.230982 81.688613 -101.227974 -0.785254 -129.780379 -25.180124 43.166529 75.790336 0.000000 0.000000 0.000000 0.000000 0.000000 0.000000 -12.457688 -31.307907 -16.623978 -5.745803 57.258272 8.855988 12.106895 -50.057379 0.377447 0.000000 0.000000 0.000000 -1.470976 -11.424134 -15.414843 -16.580187 30.650690 7.292058 6.500426 8.846860 -4.592967 0.000000 0.000000 0.000000
